<svg xmlns="http://www.w3.org/2000/svg" width="137.916" height="35" viewBox="0 0 137.916 35">
  <defs>
    <style>
      .a {
        stroke: rgba(0,0,0,0);
        stroke-miterlimit: 10;
      }
    </style>
  </defs><path
    class="a"
    d="M12735,13807a6.009,6.009,0,0,1-6-6v-22a6.007,6.007,0,0,1,6-6h22a6.005,6.005,0,0,1,6,6v22a6.008,6.008,0,0,1-6,6Zm13.726-11.338,4.3,4.3a1.909,1.909,0,0,0,1.357.6,2.111,2.111,0,0,0,1.879-1.311,1.839,1.839,0,0,0-.458-2.068l-4.266-4.266a8.429,8.429,0,1,0-2.816,2.741Zm-32.073,1.545a3.9,3.9,0,0,1-3.111-1.607,4.644,4.644,0,0,1-.894-2.751v-.035a4.5,4.5,0,0,1,1.573-3.479,3.815,3.815,0,0,1,2.328-.891h.253a3.737,3.737,0,0,1,2.471,1.029,4.433,4.433,0,0,1,.8.983,4.776,4.776,0,0,1,.641,2.374v.264c0,.162-.011.246-.035.246h-6.292a2.76,2.76,0,0,0,.669,1.406,2.158,2.158,0,0,0,1.614.766,2.262,2.262,0,0,0,1.916-1.153,1.516,1.516,0,0,1,.177-.3q1.513.686,1.528.7a5.13,5.13,0,0,1-.555.922,3.881,3.881,0,0,1-3.049,1.521Zm-1.968-5.79-.143.326h4.266v-.011a3,3,0,0,0-.686-1.019,2.205,2.205,0,0,0-1.459-.572A2.272,2.272,0,0,0,12714.687,13791.418Zm-15.062,5.79a4.165,4.165,0,0,1-2.294-.7c-.143-.1-.267-.2-.382-.3a3.221,3.221,0,0,1-.491-.492,4.54,4.54,0,0,1-.344-.457,5.761,5.761,0,0,1-.3-.544,4.424,4.424,0,0,1-.412-1.819v-.132a4.407,4.407,0,0,1,.492-1.979,5.4,5.4,0,0,1,.332-.555,5.8,5.8,0,0,1,.451-.533,5.089,5.089,0,0,1,.613-.513,4.111,4.111,0,0,1,2.366-.738,4.177,4.177,0,0,1,2.62.925,4.779,4.779,0,0,1,.475.437,4.315,4.315,0,0,1,.859,1.39,4.5,4.5,0,0,1-.229,3.771,5.345,5.345,0,0,1-.5.73,4.319,4.319,0,0,1-.555.555,5.211,5.211,0,0,1-.45.326,4.177,4.177,0,0,1-2.18.63Zm-1.671-6.372a2.084,2.084,0,0,0-.343.405,2.684,2.684,0,0,0-.509,1.6,2.727,2.727,0,0,0,.623,1.739,2.367,2.367,0,0,0,.42.4,2.442,2.442,0,0,0,1.514.53,2.48,2.48,0,0,0,1.774-.755,2.624,2.624,0,0,0,.43-.565,2.71,2.71,0,0,0,.36-1.344v-.028a2.717,2.717,0,0,0-.693-1.819,1.943,1.943,0,0,0-.405-.36,1.719,1.719,0,0,0-.28-.19,2.441,2.441,0,0,0-1.186-.309A2.5,2.5,0,0,0,12697.953,13790.836Zm-29.578,6.372a4.16,4.16,0,0,1-3.268-1.556,4.407,4.407,0,0,1-1-2.82v-.011a4.418,4.418,0,0,1,1.493-3.337,4.247,4.247,0,0,1,2.8-1.039,3.33,3.33,0,0,1,2.512,1.115v-.967l.028-.017h1.659l.021.017v8.386l-.021.018h-1.659l-.028-.018v-.853a3.26,3.26,0,0,1-2.529,1.081Zm-2-6.081a2.9,2.9,0,0,0-.572,1.694,2.713,2.713,0,0,0,1.2,2.276,2.457,2.457,0,0,0,1.265.406h.194a2.481,2.481,0,0,0,1.636-.687,2.739,2.739,0,0,0,.824-1.985v-.011a2.674,2.674,0,0,0-1.191-2.266,2.474,2.474,0,0,0-1.3-.405h-.139A2.5,2.5,0,0,0,12666.373,13791.127Zm-13.175,6.081a4.1,4.1,0,0,1-2.173-.641,4.424,4.424,0,0,1-.454-.315,4.764,4.764,0,0,1-.554-.555,4.567,4.567,0,0,1-.492-.73,4.457,4.457,0,0,1-.239-3.771,4.7,4.7,0,0,1,.87-1.4,5.578,5.578,0,0,1,.468-.43,4.146,4.146,0,0,1,2.609-.925h.01a3.409,3.409,0,0,1,2.187.766,2.085,2.085,0,0,1,.36.36h.011v-5.434l.007-.007h1.681l.007.007V13797h-1.694v-.877c-.1.1-.2.2-.291.288a3.6,3.6,0,0,1-.465.343,3.055,3.055,0,0,1-.6.273,4.393,4.393,0,0,1-1.133.184Zm-1.854-6.185a2.731,2.731,0,0,0-.658,1.791v.035a2.777,2.777,0,0,0,.253,1.16,3.024,3.024,0,0,0,.446.676,2.508,2.508,0,0,0,1.864.828,2.546,2.546,0,0,0,1.064-.246,3.268,3.268,0,0,0,.484-.308l.156-.143a3.206,3.206,0,0,0,.326-.367,2.7,2.7,0,0,0,.52-1.591v-.045a2.673,2.673,0,0,0-.589-1.7,3.333,3.333,0,0,0-.309-.322,2.32,2.32,0,0,0-.527-.371,2.561,2.561,0,0,0-1.1-.281A2.493,2.493,0,0,0,12651.345,13791.023Zm29.249,5.253c-.153-.118-.312-.25-.476-.4a5.147,5.147,0,0,1-.491-.547,5.656,5.656,0,0,1-.423-.648,3.08,3.08,0,0,1-.174-.36l1.539-.714a3.489,3.489,0,0,0,.385.651,2.625,2.625,0,0,0,.354.4,3.357,3.357,0,0,0,.551.423,3.048,3.048,0,0,0,1.5.395h.059a3.072,3.072,0,0,0,1.5-.388,2.6,2.6,0,0,0,.4-.3,2.308,2.308,0,0,0,.354-.43,2.136,2.136,0,0,0,.3-1.074,1.7,1.7,0,0,0-.755-1.441,2.464,2.464,0,0,0-.4-.208,4.376,4.376,0,0,0-.959-.268,12.064,12.064,0,0,1-2.689-.859,2.974,2.974,0,0,1-1.864-2.8,3.54,3.54,0,0,1,.817-2.267,4.053,4.053,0,0,1,.562-.554,4.771,4.771,0,0,1,.635-.412,4.388,4.388,0,0,1,.721-.292,4.825,4.825,0,0,1,1.372-.2h.148a4.353,4.353,0,0,1,1.969.481,5.274,5.274,0,0,1,.606.388,5.452,5.452,0,0,1,.475.405,5,5,0,0,1,.492.6c.086.128.166.256.239.388l-1.532.756a1.927,1.927,0,0,0-.332-.458,2.853,2.853,0,0,0-3.912-.166,1.846,1.846,0,0,0-.344.475,1.8,1.8,0,0,0-.211.835v.06a1.1,1.1,0,0,0,.45.942,2.691,2.691,0,0,0,.385.253,6.936,6.936,0,0,0,1.354.5q.667.192,1.608.4a5.792,5.792,0,0,1,.88.315,4.492,4.492,0,0,1,.71.45,3.9,3.9,0,0,1,.572.578,3.419,3.419,0,0,1,.693,2.083v.045a3.782,3.782,0,0,1-.676,2.135,3.463,3.463,0,0,1-.413.5,4.42,4.42,0,0,1-.668.527,4.248,4.248,0,0,1-.613.314,4.849,4.849,0,0,1-1.91.389A4.706,4.706,0,0,1,12680.594,13796.276Zm11.76.721a2.686,2.686,0,0,1-1.565-.51,3.136,3.136,0,0,1-.322-.28l-.153-.194a1.763,1.763,0,0,1-.218-.36,2.6,2.6,0,0,1-.235-1.07v-4.308h-1.251l-.007-.01v-1.687l.007-.007h1.251v-4.439h1.688l.007.007v4.433h2.18l.01.007v1.688l-.01.01h-2.18v4.245a.662.662,0,0,0,.332.658.989.989,0,0,0,.476.125,3.152,3.152,0,0,0,.977-.229l.069-.035.634,1.591q-.212.088-.686.229a4.112,4.112,0,0,1-.984.139Zm-47.187,0-.018-.024v-5.107a1.368,1.368,0,0,0-.907-1.424,2.393,2.393,0,0,0-.967-.167h-.139a2.62,2.62,0,0,0-1.521.333,1.4,1.4,0,0,0-.578,1.3v5.063l-.028.024h-1.643l-.027-.024v-8.323l.027-.027h1.643l.028.027v.475h.007a5.664,5.664,0,0,1,1.178-.457,4.228,4.228,0,0,1,.939-.09h.079a3.186,3.186,0,0,1,3.6,3.306v5.09l-.017.024Zm-10.295,0-.007-.007v-8.413h1.705v8.413l-.011.007Zm-8.776,0-.011-.007v-12.853l.011-.007H12633l.011.007v1.681l-.011.007h-5.218v3.9h4.244v1.688h-4.244v5.582l-.011.007Zm79.988-.007-.028-.028v-8.254l.028-.017h1.643l.017.017v.635a3.066,3.066,0,0,1,1.985-.818h.223a3.755,3.755,0,0,1,1.8.51v.011c-.246,1.112-.382,1.694-.406,1.75a2.806,2.806,0,0,0-1.493-.555h-.142a2.061,2.061,0,0,0-1.483.624,3.679,3.679,0,0,0-.485,2.231v3.866l-.017.028Zm32.53-8.565a5.811,5.811,0,1,1,5.811,5.811A5.816,5.816,0,0,1,12738.613,13788.425Zm-102.924-2.079a1.063,1.063,0,0,1-.738-.309,1.236,1.236,0,0,1-.246-.344,1.059,1.059,0,0,1-.1-.419v-.072a1.111,1.111,0,0,1,.325-.756l.132-.114a1.115,1.115,0,0,1,.617-.2h.069a1.093,1.093,0,0,1,1.073,1.081v.053a1.1,1.1,0,0,1-1.081,1.081Z"
    transform="translate(-12625.584 -13772.501)"/></svg>
